<?xml version="1.0" standalone="no"?>
<!DOCTYPE svg PUBLIC "-//W3C//DTD SVG 20010904//EN"
 "http://www.w3.org/TR/2001/REC-SVG-20010904/DTD/svg10.dtd">
<svg version="1.0" xmlns="http://www.w3.org/2000/svg"
 width="200.000000pt" height="200.000000pt" viewBox="0 0 200.000000 200.000000"
 preserveAspectRatio="xMidYMid meet">
<metadata>
Created by potrace 1.11, written by Peter Selinger 2001-2013
</metadata>
<g transform="translate(0.000000,200.000000) scale(0.100000,-0.100000)"
fill="#000000" stroke="none">
<path d="M777 1785 c-4 -10 -20 -15 -47 -15 -49 0 -66 -25 -32 -48 18 -12 22
-24 22 -69 0 -38 4 -55 15 -59 11 -5 15 -23 15 -75 0 -53 4 -71 15 -75 9 -4
15 -19 15 -40 0 -31 -3 -34 -29 -34 -16 0 -31 -6 -34 -14 -4 -10 -25 -16 -64
-18 l-58 -3 -3 -64 c-3 -56 0 -65 19 -79 19 -13 21 -21 17 -77 -5 -54 -3 -63
14 -74 17 -11 20 -21 16 -62 -4 -42 -2 -51 14 -60 16 -9 19 -20 17 -76 -2 -52
1 -67 14 -75 13 -7 17 -23 17 -63 0 -38 4 -57 16 -63 11 -6 14 -22 12 -68 l-3
-59 -55 -3 c-32 -2 -59 -9 -65 -16 -6 -8 -22 -16 -35 -18 -22 -3 -25 -9 -28
-52 -2 -37 1 -52 12 -58 12 -6 16 -24 16 -62 0 -39 4 -55 15 -60 11 -4 15 -21
15 -58 0 -43 5 -57 24 -76 20 -18 25 -19 30 -7 4 11 22 15 73 15 59 0 70 3 81
21 12 18 21 21 63 17 42 -4 51 -2 60 15 9 16 19 19 60 15 42 -4 51 -2 60 14 9
16 20 19 75 17 48 -2 68 2 82 14 12 11 36 17 69 17 36 0 53 4 57 15 4 11 22
15 75 15 52 0 70 4 75 15 4 11 21 15 59 15 42 0 58 5 73 21 17 19 18 21 1 30
-13 8 -17 23 -17 63 0 39 -4 55 -15 60 -11 4 -15 22 -15 75 0 52 -4 70 -15 75
-10 3 -15 19 -15 47 0 40 -1 41 -18 26 -12 -11 -36 -17 -66 -17 -32 0 -48 -5
-52 -15 -4 -9 -19 -15 -39 -15 -37 0 -52 23 -40 61 5 15 1 25 -15 36 -20 14
-22 22 -17 80 4 56 2 65 -15 74 -17 9 -20 18 -16 60 4 42 2 51 -14 60 -16 9
-19 20 -17 61 2 38 -1 53 -14 63 -13 9 -17 28 -17 83 0 53 -4 71 -15 76 -11 4
-15 20 -15 56 0 37 -5 55 -20 70 -24 24 -48 26 -56 5 -8 -20 -163 -22 -165 -2
-1 6 0 37 1 69 1 45 -2 60 -18 76 -16 16 -19 29 -15 63 5 34 2 45 -13 56 -13
9 -19 26 -19 51 l0 37 -51 3 c-39 2 -53 -1 -57 -13z"/>
</g>
</svg>
